<?xml version="1.0" encoding="UTF-8"?>
<!DOCTYPE svg PUBLIC "-//W3C//DTD SVG 1.1//EN" "http://www.w3.org/Graphics/SVG/1.1/DTD/svg11.dtd">
<svg xmlns="http://www.w3.org/2000/svg" version="1.1" width="192px" height="192px" style="shape-rendering:geometricPrecision; text-rendering:geometricPrecision; image-rendering:optimizeQuality; fill-rule:evenodd; clip-rule:evenodd" xmlns:xlink="http://www.w3.org/1999/xlink">
<g><path style="opacity:0.962" fill="#d40201" d="M 186.5,113.5 C 176.494,113.666 166.494,113.5 156.5,113C 159.409,111.594 161.409,109.428 162.5,106.5C 168.453,94.581 165.453,85.7477 153.5,80C 147.833,79.6667 142.167,79.3333 136.5,79C 133.833,76 133.833,73 136.5,70C 145.827,69.5002 155.161,69.3335 164.5,69.5C 164.5,65.5 164.5,61.5 164.5,57.5C 153.769,57.0973 143.102,57.5973 132.5,59C 126.603,61.6369 123.27,66.1369 122.5,72.5C 121.778,73.5511 120.778,74.2178 119.5,74.5C 112.347,60.427 101.014,55.2603 85.5,59C 72.9873,64.3516 66.6539,73.8516 66.5,87.5C 65.609,86.8902 64.609,86.5569 63.5,86.5C 60.8615,83.379 57.5282,81.2123 53.5,80C 48.1667,79.6667 42.8333,79.3333 37.5,79C 34.8333,76 34.8333,73 37.5,70C 46.8274,69.5002 56.1607,69.3335 65.5,69.5C 65.5,65.5 65.5,61.5 65.5,57.5C 55.4944,57.3335 45.4944,57.5002 35.5,58C 23.0486,63.9656 20.0486,73.1322 26.5,85.5C 27.2543,88.091 28.921,89.9243 31.5,91C 38.3736,92.8258 45.3736,93.9925 52.5,94.5C 43.5246,95.4982 34.5246,95.8315 25.5,95.5C 23.8333,94.1667 22.1667,94.1667 20.5,95.5C 17.1667,95.5 13.8333,95.5 10.5,95.5C 8.06276,95.7563 5.72942,96.4229 3.5,97.5C 3.16667,97 2.83333,96.5 2.5,96C 3.47209,93.8887 4.30542,91.7221 5,89.5C 7.80427,88.358 9.97094,86.5246 11.5,84C 11.3865,82.7202 10.7199,81.8869 9.5,81.5C 7.48412,82.7059 5.48412,82.7059 3.5,81.5C 4.83333,79.1667 6.16667,76.8333 7.5,74.5C 10.2762,74.0702 12.6095,72.9035 14.5,71C 14.3552,70.228 14.0219,69.5613 13.5,69C 11.2305,68.2419 9.06385,68.4086 7,69.5C 7.77337,66.4603 9.27337,63.627 11.5,61C 21.4382,59.359 21.7715,57.1923 12.5,54.5C 14.316,52.1831 16.316,50.0165 18.5,48C 20.4542,48.4531 22.2875,48.6198 24,48.5C 25.0217,47.646 25.8551,46.646 26.5,45.5C 24.3218,44.0213 21.9885,42.688 19.5,41.5C 22.1405,40.023 24.6405,38.3563 27,36.5C 30.565,38.3589 33.3983,37.6922 35.5,34.5C 33.322,33.3434 31.322,32.0101 29.5,30.5C 33.531,26.3157 38.031,25.649 43,28.5C 45.1875,27.9407 45.8542,26.6073 45,24.5C 41.9056,24.2072 40.4056,22.5406 40.5,19.5C 42.8484,19.3305 45.1817,18.9971 47.5,18.5C 50.4362,19.6488 53.4362,20.1488 56.5,20C 56.8333,19.6667 57.1667,19.3333 57.5,19C 55.8333,17.1667 54.1667,15.3333 52.5,13.5C 54.6936,12.368 57.027,11.7014 59.5,11.5C 62.3586,12.3363 65.0253,13.6696 67.5,15.5C 68.7199,15.1131 69.3865,14.2798 69.5,13C 68.3746,11.0374 67.0413,9.20404 65.5,7.5C 70.7992,5.39376 75.1326,6.56042 78.5,11C 79.7932,11.49 81.1266,11.6567 82.5,11.5C 82.8541,8.57943 81.8541,6.2461 79.5,4.5C 82.4512,3.77645 85.4512,3.94311 88.5,5C 95.0099,14.0591 97.3432,13.2258 95.5,2.5C 97.444,3.1892 99.444,3.6892 101.5,4C 103.414,6.61674 105.414,9.11674 107.5,11.5C 110.679,9.92898 111.012,7.59564 108.5,4.5C 111.307,3.86271 113.973,4.52937 116.5,6.5C 117.304,9.4404 118.637,12.1071 120.5,14.5C 121.902,14.1345 122.902,13.3012 123.5,12C 122.767,10.2341 122.433,8.40078 122.5,6.5C 129.31,7.64313 132.31,11.6431 131.5,18.5C 133.429,18.7692 135.095,18.2692 136.5,17C 135.228,14.9555 135.561,13.1222 137.5,11.5C 138.833,13.5 140.5,15.1667 142.5,16.5C 143.208,19.3664 143.875,22.1997 144.5,25C 145.5,25.6667 146.5,25.6667 147.5,25C 148.103,23.1746 148.77,21.3413 149.5,19.5C 151.727,21.6068 153.727,23.9401 155.5,26.5C 154.456,28.7676 154.289,31.1009 155,33.5C 155.718,34.4506 156.551,34.6172 157.5,34C 158.218,32.0126 159.218,30.1792 160.5,28.5C 162.232,30.2827 163.732,32.2827 165,34.5C 164.258,37.7101 163.758,41.0434 163.5,44.5C 164.978,44.762 166.311,44.4287 167.5,43.5C 168.026,41.7697 169.026,40.4363 170.5,39.5C 174.433,44.3313 174.433,49.1647 170.5,54C 171.333,54.8333 172.167,55.6667 173,56.5C 174.684,54.6487 176.517,52.982 178.5,51.5C 181.058,56.4036 180.558,60.7369 177,64.5C 176.51,65.7932 176.343,67.1266 176.5,68.5C 179.81,68.539 182.476,67.2057 184.5,64.5C 184.833,65.1667 185.167,65.8333 185.5,66.5C 184.663,68.8047 184.496,71.138 185,73.5C 182.982,75.3501 181.149,77.3501 179.5,79.5C 180.145,80.646 180.978,81.646 182,82.5C 183.897,80.3347 186.064,79.6681 188.5,80.5C 187.787,82.7759 187.287,85.1093 187,87.5C 184.926,89.4521 182.759,91.2854 180.5,93C 182.638,96.1037 184.971,96.2703 187.5,93.5C 188.738,96.1678 188.738,98.8345 187.5,101.5C 185.135,103.342 182.802,105.176 180.5,107C 180.667,108.5 181.5,109.333 183,109.5C 188.334,107.716 189.5,109.049 186.5,113.5 Z M 95.5,19.5 C 99.6723,22.2853 99.339,23.952 94.5,24.5C 94.6287,22.7839 94.962,21.1172 95.5,19.5 Z M 167.5,93.5 C 174.092,94.4284 174.092,95.4284 167.5,96.5C 167.5,95.5 167.5,94.5 167.5,93.5 Z"/></g>
<g><path style="opacity:1" fill="#fef7f7" d="M 63.5,86.5 C 69.5075,99.3053 65.8408,108.139 52.5,113C 43.1726,113.5 33.8393,113.666 24.5,113.5C 24.5,109.5 24.5,105.5 24.5,101.5C 33.5062,101.666 42.5062,101.5 51.5,101C 54.9779,98.2935 55.3112,95.2935 52.5,92C 46.8333,91.6667 41.1667,91.3333 35.5,91C 32.1381,89.6574 29.1381,87.824 26.5,85.5C 20.0486,73.1322 23.0486,63.9656 35.5,58C 45.4944,57.5002 55.4944,57.3335 65.5,57.5C 65.5,61.5 65.5,65.5 65.5,69.5C 56.1607,69.3335 46.8274,69.5002 37.5,70C 34.8333,73 34.8333,76 37.5,79C 42.8333,79.3333 48.1667,79.6667 53.5,80C 57.5282,81.2123 60.8615,83.379 63.5,86.5 Z"/></g>
<g><path style="opacity:1" fill="#fefafa" d="M 119.5,74.5 C 124.918,92.4971 118.918,104.997 101.5,112C 82.2824,114.615 70.6157,106.449 66.5,87.5C 66.6539,73.8516 72.9873,64.3516 85.5,59C 101.014,55.2603 112.347,60.427 119.5,74.5 Z"/></g>
<g><path style="opacity:1" fill="#fef8f7" d="M 162.5,106.5 C 159.489,109.676 155.822,111.843 151.5,113C 142.173,113.5 132.839,113.666 123.5,113.5C 123.5,109.5 123.5,105.5 123.5,101.5C 132.506,101.666 141.506,101.5 150.5,101C 153.978,98.2935 154.311,95.2935 151.5,92C 145.833,91.6667 140.167,91.3333 134.5,91C 126.118,87.7471 122.118,81.5804 122.5,72.5C 123.27,66.1369 126.603,61.6369 132.5,59C 143.102,57.5973 153.769,57.0973 164.5,57.5C 164.5,61.5 164.5,65.5 164.5,69.5C 155.161,69.3335 145.827,69.5002 136.5,70C 133.833,73 133.833,76 136.5,79C 142.167,79.3333 147.833,79.6667 153.5,80C 165.453,85.7477 168.453,94.581 162.5,106.5 Z"/></g>
<g><path style="opacity:1" fill="#d1120a" d="M 89.5,69.5 C 106.39,69.2243 112.557,77.2243 108,93.5C 101.518,102.205 93.6851,103.705 84.5,98C 75.3658,86.5639 77.0324,77.0639 89.5,69.5 Z"/></g>
<g><path style="opacity:1" fill="#fbe6e6" d="M 84.5,80.5 C 92.4894,79.3173 95.156,82.4839 92.5,90C 89.9865,91.2525 87.3198,91.7525 84.5,91.5C 84.5,87.8333 84.5,84.1667 84.5,80.5 Z"/></g>
<g><path style="opacity:1" fill="#fce9e9" d="M 97.5,80.5 C 103.665,79.8293 106.165,82.496 105,88.5C 102.374,92.0719 99.3742,92.4052 96,89.5C 95.068,86.1769 95.568,83.1769 97.5,80.5 Z"/></g>
<g><path style="opacity:1" fill="#cf170e" d="M 87.5,82.5 C 90.9656,83.109 91.9656,84.9423 90.5,88C 89.552,88.4828 88.552,88.6495 87.5,88.5C 87.5,86.5 87.5,84.5 87.5,82.5 Z"/></g>
<g><path style="opacity:1" fill="#ce160d" d="M 99.5,82.5 C 101.484,82.484 102.484,83.484 102.5,85.5C 102.566,87.2664 101.732,88.2664 100,88.5C 96.897,86.888 96.7304,84.888 99.5,82.5 Z"/></g>
<g><path style="opacity:0.966" fill="#c80f08" d="M 122.5,72.5 C 122.118,81.5804 126.118,87.7471 134.5,91C 140.167,91.3333 145.833,91.6667 151.5,92C 154.311,95.2935 153.978,98.2935 150.5,101C 141.506,101.5 132.506,101.666 123.5,101.5C 123.5,105.5 123.5,109.5 123.5,113.5C 132.839,113.666 142.173,113.5 151.5,113C 155.822,111.843 159.489,109.676 162.5,106.5C 161.409,109.428 159.409,111.594 156.5,113C 166.494,113.5 176.494,113.666 186.5,113.5C 186.092,114.643 185.425,115.643 184.5,116.5C 175.034,119.924 175.367,122.258 185.5,123.5C 183.712,125.576 182.046,127.743 180.5,130C 179.552,130.483 178.552,130.649 177.5,130.5C 175.396,130.799 173.396,130.466 171.5,129.5C 173.173,127.239 172.84,125.572 170.5,124.5C 166.948,117.424 161.948,116.09 155.5,120.5C 154.167,120.167 152.833,119.833 151.5,119.5C 147.901,118.656 144.234,118.323 140.5,118.5C 140.5,123.833 140.5,129.167 140.5,134.5C 139.833,129.167 139.167,123.833 138.5,118.5C 137.167,118.5 135.833,118.5 134.5,118.5C 134.167,118.5 133.833,118.5 133.5,118.5C 132.833,118.5 132.167,118.5 131.5,118.5C 127.833,118.5 124.167,118.5 120.5,118.5C 120.5,119.833 120.5,121.167 120.5,122.5C 119.833,126.5 119.167,130.5 118.5,134.5C 118.5,129.167 118.5,123.833 118.5,118.5C 117.167,118.5 115.833,118.5 114.5,118.5C 114.663,120.857 114.497,123.19 114,125.5C 112.147,123.097 110.314,120.764 108.5,118.5C 108.38,117.414 107.713,116.747 106.5,116.5C 101.344,117.068 96.3445,117.735 91.5,118.5C 90.8333,118.5 90.1667,118.5 89.5,118.5C 85.4203,117.105 81.7536,117.772 78.5,120.5C 76.7839,120.371 75.1172,120.038 73.5,119.5C 69.9359,118.577 66.2693,118.244 62.5,118.5C 62.5,122.167 62.5,125.833 62.5,129.5C 61.6773,126.023 61.1773,122.356 61,118.5C 60.6667,120.5 60.3333,122.5 60,124.5C 59.5831,123.244 58.7498,122.577 57.5,122.5C 56.8788,119.143 54.8788,117.976 51.5,119C 49.1273,123.244 47.4607,127.744 46.5,132.5C 45.8333,127.833 45.1667,123.167 44.5,118.5C 43.1266,118.343 41.7932,118.51 40.5,119C 39,121.167 37.5,123.333 36,125.5C 34.6924,123.359 33.1924,121.359 31.5,119.5C 29.7015,118.212 28.0348,118.212 26.5,119.5C 24.783,122.845 24.1164,126.511 24.5,130.5C 20.5,130.5 16.5,130.5 12.5,130.5C 14.002,128.825 15.3353,126.992 16.5,125C 16.0019,123.842 15.1685,123.009 14,122.5C 11.8672,124.652 9.36718,125.819 6.5,126C 7.28827,122.924 7.78827,119.758 8,116.5C 9.68511,114.983 11.1851,113.316 12.5,111.5C 12.1131,110.28 11.2798,109.613 10,109.5C 7.86056,110.236 5.86056,111.236 4,112.5C 4.13157,109.561 4.4649,106.561 5,103.5C 7.5,101.667 10,99.8333 12.5,98C 11.244,97.5831 10.5774,96.7498 10.5,95.5C 13.8333,95.5 17.1667,95.5 20.5,95.5C 20.7869,97.1207 21.7869,98.1207 23.5,98.5C 24.9185,97.9953 25.5852,96.9953 25.5,95.5C 34.5246,95.8315 43.5246,95.4982 52.5,94.5C 45.3736,93.9925 38.3736,92.8258 31.5,91C 28.921,89.9243 27.2543,88.091 26.5,85.5C 29.1381,87.824 32.1381,89.6574 35.5,91C 41.1667,91.3333 46.8333,91.6667 52.5,92C 55.3112,95.2935 54.9779,98.2935 51.5,101C 42.5062,101.5 33.5062,101.666 24.5,101.5C 24.5,105.5 24.5,109.5 24.5,113.5C 33.8393,113.666 43.1726,113.5 52.5,113C 65.8408,108.139 69.5075,99.3053 63.5,86.5C 64.609,86.5569 65.609,86.8902 66.5,87.5C 70.6157,106.449 82.2824,114.615 101.5,112C 118.918,104.997 124.918,92.4971 119.5,74.5C 120.778,74.2178 121.778,73.5511 122.5,72.5 Z"/></g>
<g><path style="opacity:1" fill="#fdf6f6" d="M 44.5,118.5 C 44.5,123.5 44.5,128.5 44.5,133.5C 43.5,133.5 42.5,133.5 41.5,133.5C 41.8134,130.753 41.48,128.086 40.5,125.5C 39.8933,125.624 39.56,125.957 39.5,126.5C 37.3811,131.549 35.0477,131.716 32.5,127C 31.5632,126.308 30.8966,126.475 30.5,127.5C 30.5,129.5 30.5,131.5 30.5,133.5C 29.1667,133.5 27.8333,133.5 26.5,133.5C 26.5,128.833 26.5,124.167 26.5,119.5C 28.0348,118.212 29.7015,118.212 31.5,119.5C 33.1924,121.359 34.6924,123.359 36,125.5C 37.5,123.333 39,121.167 40.5,119C 41.7932,118.51 43.1266,118.343 44.5,118.5 Z"/></g>
<g><path style="opacity:1" fill="#fcf2f2" d="M 57.5,122.5 C 59.4285,126.285 60.7618,130.285 61.5,134.5C 58.4395,134.413 55.7728,133.413 53.5,131.5C 51.9704,131.64 50.9704,132.307 50.5,133.5C 48.901,133.768 47.5676,133.434 46.5,132.5C 47.4607,127.744 49.1273,123.244 51.5,119C 54.8788,117.976 56.8788,119.143 57.5,122.5 Z"/></g>
<g><path style="opacity:1" fill="#fcecec" d="M 89.5,118.5 C 90.5092,119.939 90.1759,121.272 88.5,122.5C 84.3079,120.68 81.6412,122.013 80.5,126.5C 81.9083,130.463 84.575,131.463 88.5,129.5C 90.9734,131.098 90.9734,132.598 88.5,134C 77.709,134.902 74.3757,130.402 78.5,120.5C 81.7536,117.772 85.4203,117.105 89.5,118.5 Z"/></g>
<g><path style="opacity:1" fill="#fdf4f4" d="M 151.5,119.5 C 153.021,122.705 152.688,125.705 150.5,128.5C 151.752,130.001 152.752,131.668 153.5,133.5C 152.277,134.614 150.944,134.781 149.5,134C 148.274,132.365 146.941,130.865 145.5,129.5C 144.548,131.045 144.215,132.712 144.5,134.5C 143.167,134.5 141.833,134.5 140.5,134.5C 140.5,129.167 140.5,123.833 140.5,118.5C 144.234,118.323 147.901,118.656 151.5,119.5 Z"/></g>
<g><path style="opacity:1" fill="#fcf1f0" d="M 170.5,124.5 C 169.928,131.899 165.928,135.065 158.5,134C 153.103,130.519 152.103,126.019 155.5,120.5C 161.948,116.09 166.948,117.424 170.5,124.5 Z"/></g>
<g><path style="opacity:0.961" fill="#bd0201" d="M 108.5,118.5 C 107.5,118.5 106.5,118.5 105.5,118.5C 104.512,123.64 104.179,128.974 104.5,134.5C 106.167,134.5 107.833,134.5 109.5,134.5C 109.194,131.615 109.527,128.948 110.5,126.5C 111.64,128.78 112.807,131.114 114,133.5C 115.356,134.38 116.856,134.714 118.5,134.5C 119.167,130.5 119.833,126.5 120.5,122.5C 120.5,126.5 120.5,130.5 120.5,134.5C 124.5,134.5 128.5,134.5 132.5,134.5C 132.5,133.167 132.5,131.833 132.5,130.5C 129.753,130.813 127.086,130.48 124.5,129.5C 126.743,128.526 129.076,128.192 131.5,128.5C 131.5,127.167 131.5,125.833 131.5,124.5C 129.167,124.5 126.833,124.5 124.5,124.5C 124.5,123.5 124.5,122.5 124.5,121.5C 126.833,121.5 129.167,121.5 131.5,121.5C 131.5,120.5 131.5,119.5 131.5,118.5C 132.167,118.5 132.833,118.5 133.5,118.5C 133.5,123.833 133.5,129.167 133.5,134.5C 135.415,134.784 137.081,134.451 138.5,133.5C 138.5,128.5 138.5,123.5 138.5,118.5C 139.167,123.833 139.833,129.167 140.5,134.5C 141.833,134.5 143.167,134.5 144.5,134.5C 144.215,132.712 144.548,131.045 145.5,129.5C 146.941,130.865 148.274,132.365 149.5,134C 150.944,134.781 152.277,134.614 153.5,133.5C 152.752,131.668 151.752,130.001 150.5,128.5C 152.688,125.705 153.021,122.705 151.5,119.5C 152.833,119.833 154.167,120.167 155.5,120.5C 152.103,126.019 153.103,130.519 158.5,134C 165.928,135.065 169.928,131.899 170.5,124.5C 172.84,125.572 173.173,127.239 171.5,129.5C 173.396,130.466 175.396,130.799 177.5,130.5C 175.614,131.065 173.947,132.065 172.5,133.5C 172.709,134.086 173.043,134.586 173.5,135C 175.473,135.495 177.473,135.662 179.5,135.5C 178.134,138.064 176.467,140.564 174.5,143C 171.854,143.497 169.187,143.664 166.5,143.5C 166.33,144.822 166.663,145.989 167.5,147C 169.78,147.233 171.78,148.066 173.5,149.5C 171.082,150.415 169.082,151.915 167.5,154C 164.333,154.252 161.333,154.418 158.5,154.5C 158.167,155 157.833,155.5 157.5,156C 159.175,157.502 160.841,159.002 162.5,160.5C 158.196,164.694 153.196,165.694 147.5,163.5C 147.316,166.321 148.649,167.988 151.5,168.5C 152.386,169.325 152.719,170.325 152.5,171.5C 149.819,171.462 147.319,172.129 145,173.5C 142.305,171.886 139.472,171.052 136.5,171C 135.549,171.718 135.383,172.551 136,173.5C 137.351,175.019 138.851,176.352 140.5,177.5C 138.058,178.994 135.391,179.994 132.5,180.5C 129.864,179.029 127.364,177.363 125,175.5C 124.13,176.108 123.63,176.941 123.5,178C 124.461,180.082 125.794,181.915 127.5,183.5C 124.973,184.214 122.473,184.88 120,185.5C 117.356,183.69 114.856,181.69 112.5,179.5C 111.328,179.919 110.328,180.585 109.5,181.5C 113.542,186.9 111.875,188.734 104.5,187C 102.658,184.457 100.491,182.29 98,180.5C 96.0845,183.053 96.2511,185.553 98.5,188C 95.2791,188.797 92.2791,188.297 89.5,186.5C 88.6999,183.867 87.1999,181.867 85,180.5C 83.7202,180.613 82.8869,181.28 82.5,182.5C 83.7059,184.516 83.7059,186.516 82.5,188.5C 80.3333,187.052 78,185.885 75.5,185C 72.4157,174.876 70.0823,175.043 68.5,185.5C 63.0773,183.257 60.244,179.257 60,173.5C 59,172.167 58,172.167 57,173.5C 56.5045,175.473 56.3379,177.473 56.5,179.5C 53.9359,178.134 51.4359,176.467 49,174.5C 48.7822,171.574 48.2822,168.74 47.5,166C 46.5509,165.383 45.7175,165.549 45,166.5C 44.7674,168.78 43.934,170.78 42.5,172.5C 41.2433,170.321 39.7433,168.321 38,166.5C 37.231,163.901 37.3977,161.401 38.5,159C 37.6667,158.167 36.8333,157.333 36,156.5C 32.199,164.717 29.3656,164.217 27.5,155C 28.3319,152.522 28.4986,150.022 28,147.5C 27.2825,146.549 26.4491,146.383 25.5,147C 24.6948,148.972 23.3615,150.472 21.5,151.5C 17.7015,146.798 17.7015,142.131 21.5,137.5C 20.6518,135.717 19.3185,135.217 17.5,136C 16.3333,137.833 14.8333,139.333 13,140.5C 13.1302,137.786 12.6302,134.953 11.5,132C 11.5699,131.235 11.9033,130.735 12.5,130.5C 16.5,130.5 20.5,130.5 24.5,130.5C 24.1164,126.511 24.783,122.845 26.5,119.5C 26.5,124.167 26.5,128.833 26.5,133.5C 27.9187,134.451 29.5853,134.784 31.5,134.5C 31.8016,131.941 31.4682,129.607 30.5,127.5C 30.8966,126.475 31.5632,126.308 32.5,127C 35.0477,131.716 37.3811,131.549 39.5,126.5C 40.4731,128.948 40.8064,131.615 40.5,134.5C 44.0419,134.813 47.3752,134.479 50.5,133.5C 50.9704,132.307 51.9704,131.64 53.5,131.5C 55.7728,133.413 58.4395,134.413 61.5,134.5C 60.7618,130.285 59.4285,126.285 57.5,122.5C 58.7498,122.577 59.5831,123.244 60,124.5C 60.3333,122.5 60.6667,120.5 61,118.5C 61.1773,122.356 61.6773,126.023 62.5,129.5C 61.7564,132.95 63.0897,134.616 66.5,134.5C 66.7298,126.909 68.3965,126.742 71.5,134C 73.2588,134.798 74.9255,134.631 76.5,133.5C 75.1667,131.833 73.8333,130.167 72.5,128.5C 75.946,125.751 76.2793,122.751 73.5,119.5C 75.1172,120.038 76.7839,120.371 78.5,120.5C 74.3757,130.402 77.709,134.902 88.5,134C 90.9734,132.598 90.9734,131.098 88.5,129.5C 84.575,131.463 81.9083,130.463 80.5,126.5C 81.6412,122.013 84.3079,120.68 88.5,122.5C 90.1759,121.272 90.5092,119.939 89.5,118.5C 90.1667,118.5 90.8333,118.5 91.5,118.5C 96.3445,117.735 101.344,117.068 106.5,116.5C 107.713,116.747 108.38,117.414 108.5,118.5 Z M 94.5,167.5 C 98.439,167.178 99.2723,168.511 97,171.5C 95.5187,170.529 94.6854,169.196 94.5,167.5 Z"/></g>
<g><path style="opacity:1" fill="#fdf5f5" d="M 134.5,118.5 C 135.833,118.5 137.167,118.5 138.5,118.5C 138.5,123.5 138.5,128.5 138.5,133.5C 137.167,133.5 135.833,133.5 134.5,133.5C 134.5,128.5 134.5,123.5 134.5,118.5 Z"/></g>
<g><path style="opacity:1" fill="#fcefef" d="M 131.5,118.5 C 131.5,119.5 131.5,120.5 131.5,121.5C 129.167,121.5 126.833,121.5 124.5,121.5C 124.5,122.5 124.5,123.5 124.5,124.5C 126.833,124.5 129.167,124.5 131.5,124.5C 131.5,125.833 131.5,127.167 131.5,128.5C 129.076,128.192 126.743,128.526 124.5,129.5C 127.086,130.48 129.753,130.813 132.5,130.5C 132.5,131.833 132.5,133.167 132.5,134.5C 128.5,134.5 124.5,134.5 120.5,134.5C 120.5,130.5 120.5,126.5 120.5,122.5C 120.5,121.167 120.5,119.833 120.5,118.5C 124.167,118.5 127.833,118.5 131.5,118.5 Z"/></g>
<g><path style="opacity:1" fill="#fef8f8" d="M 105.5,118.5 C 106.5,118.5 107.5,118.5 108.5,118.5C 110.314,120.764 112.147,123.097 114,125.5C 114.497,123.19 114.663,120.857 114.5,118.5C 115.833,118.5 117.167,118.5 118.5,118.5C 118.5,123.833 118.5,129.167 118.5,134.5C 116.856,134.714 115.356,134.38 114,133.5C 112.807,131.114 111.64,128.78 110.5,126.5C 110.44,125.957 110.107,125.624 109.5,125.5C 108.52,128.086 108.187,130.753 108.5,133.5C 107.5,133.5 106.5,133.5 105.5,133.5C 105.5,128.5 105.5,123.5 105.5,118.5 Z"/></g>
<g><path style="opacity:1" fill="#fefefe" d="M 91.5,118.5 C 95.1667,118.5 98.8333,118.5 102.5,118.5C 102.5,119.5 102.5,120.5 102.5,121.5C 100.167,121.5 97.8333,121.5 95.5,121.5C 95.5,122.5 95.5,123.5 95.5,124.5C 97.5,124.5 99.5,124.5 101.5,124.5C 101.5,125.5 101.5,126.5 101.5,127.5C 99.2646,127.205 97.2646,127.539 95.5,128.5C 95.5,129.167 95.5,129.833 95.5,130.5C 97.6979,131.165 100.031,131.832 102.5,132.5C 98.8927,133.489 95.226,133.823 91.5,133.5C 91.5,128.5 91.5,123.5 91.5,118.5 Z"/></g>
<g><path style="opacity:1" fill="#fcf1f1" d="M 73.5,119.5 C 76.2793,122.751 75.946,125.751 72.5,128.5C 73.8333,130.167 75.1667,131.833 76.5,133.5C 74.9255,134.631 73.2588,134.798 71.5,134C 68.3965,126.742 66.7298,126.909 66.5,134.5C 63.0897,134.616 61.7564,132.95 62.5,129.5C 62.5,125.833 62.5,122.167 62.5,118.5C 66.2693,118.244 69.9359,118.577 73.5,119.5 Z"/></g>
<g><path style="opacity:1" fill="#e28483" d="M 133.5,118.5 C 133.833,118.5 134.167,118.5 134.5,118.5C 134.5,123.5 134.5,128.5 134.5,133.5C 135.833,133.5 137.167,133.5 138.5,133.5C 137.081,134.451 135.415,134.784 133.5,134.5C 133.5,129.167 133.5,123.833 133.5,118.5 Z"/></g>
<g><path style="opacity:1" fill="#e8a2a2" d="M 44.5,118.5 C 45.1667,123.167 45.8333,127.833 46.5,132.5C 47.5676,133.434 48.901,133.768 50.5,133.5C 47.3752,134.479 44.0419,134.813 40.5,134.5C 40.8064,131.615 40.4731,128.948 39.5,126.5C 39.56,125.957 39.8933,125.624 40.5,125.5C 41.48,128.086 41.8134,130.753 41.5,133.5C 42.5,133.5 43.5,133.5 44.5,133.5C 44.5,128.5 44.5,123.5 44.5,118.5 Z"/></g>
<g><path style="opacity:1" fill="#e79898" d="M 105.5,118.5 C 105.5,123.5 105.5,128.5 105.5,133.5C 106.5,133.5 107.5,133.5 108.5,133.5C 108.187,130.753 108.52,128.086 109.5,125.5C 110.107,125.624 110.44,125.957 110.5,126.5C 109.527,128.948 109.194,131.615 109.5,134.5C 107.833,134.5 106.167,134.5 104.5,134.5C 104.179,128.974 104.512,123.64 105.5,118.5 Z"/></g>
<g><path style="opacity:1" fill="#c63127" d="M 144.5,121.5 C 146.665,121.116 148.332,121.783 149.5,123.5C 148.332,125.217 146.665,125.884 144.5,125.5C 144.5,124.167 144.5,122.833 144.5,121.5 Z"/></g>
<g><path style="opacity:1" fill="#c11109" d="M 160.5,121.5 C 166.293,122.421 167.626,125.255 164.5,130C 159.545,131.376 157.379,129.542 158,124.5C 159.045,123.627 159.878,122.627 160.5,121.5 Z"/></g>
<g><path style="opacity:1" fill="#cb3a33" d="M 66.5,121.5 C 68.6648,121.116 70.3315,121.783 71.5,123.5C 70.3315,125.217 68.6648,125.884 66.5,125.5C 66.5,124.167 66.5,122.833 66.5,121.5 Z"/></g>
<g><path style="opacity:1" fill="#bf2019" d="M 52.5,125.5 C 54.337,125.639 54.6704,126.306 53.5,127.5C 52.7025,127.043 52.3691,126.376 52.5,125.5 Z"/></g>
<g><path style="opacity:1" fill="#e49696" d="M 101.5,124.5 C 102.434,125.568 102.768,126.901 102.5,128.5C 100.167,128.5 97.8333,128.5 95.5,128.5C 97.2646,127.539 99.2646,127.205 101.5,127.5C 101.5,126.5 101.5,125.5 101.5,124.5 Z"/></g>
<g><path style="opacity:1" fill="#e69897" d="M 30.5,127.5 C 31.4682,129.607 31.8016,131.941 31.5,134.5C 29.5853,134.784 27.9187,134.451 26.5,133.5C 27.8333,133.5 29.1667,133.5 30.5,133.5C 30.5,131.5 30.5,129.5 30.5,127.5 Z"/></g>
<g><path style="opacity:1" fill="#edb7b7" d="M 95.5,130.5 C 98.1667,130.5 100.833,130.5 103.5,130.5C 103.5,131.833 103.5,133.167 103.5,134.5C 99.2984,134.817 95.2984,134.483 91.5,133.5C 95.226,133.823 98.8927,133.489 102.5,132.5C 100.031,131.832 97.6979,131.165 95.5,130.5 Z"/></g>
</svg>
